<mxfile host="Electron" modified="2024-11-13T01:26:40.782Z" agent="Mozilla/5.0 (Windows NT 10.0; Win64; x64) AppleWebKit/537.36 (KHTML, like Gecko) draw.io/24.6.4 Chrome/124.0.6367.207 Electron/30.0.6 Safari/537.36" etag="5e0O_z30dBeS9MQKKgSn" version="24.6.4" type="device">
  <diagram id="C5RBs43oDa-KdzZeNtuy" name="Page-1">
    <mxGraphModel dx="619" dy="828" grid="1" gridSize="10" guides="1" tooltips="1" connect="1" arrows="1" fold="1" page="1" pageScale="1" pageWidth="827" pageHeight="1169" math="0" shadow="0">
      <root>
        <mxCell id="WIyWlLk6GJQsqaUBKTNV-0" />
        <mxCell id="WIyWlLk6GJQsqaUBKTNV-1" parent="WIyWlLk6GJQsqaUBKTNV-0" />
        <mxCell id="siWyhBhnACyM7Weuultx-2" value="SearchWindow: QMainWIndow" style="swimlane;fontStyle=1;align=center;verticalAlign=top;childLayout=stackLayout;horizontal=1;startSize=26;horizontalStack=0;resizeParent=1;resizeParentMax=0;resizeLast=0;collapsible=1;marginBottom=0;whiteSpace=wrap;html=1;" parent="WIyWlLk6GJQsqaUBKTNV-1" vertex="1">
          <mxGeometry x="20" y="120" width="390" height="150" as="geometry" />
        </mxCell>
        <mxCell id="siWyhBhnACyM7Weuultx-3" value="+ data_table: SearchTable" style="text;strokeColor=none;fillColor=none;align=left;verticalAlign=top;spacingLeft=4;spacingRight=4;overflow=hidden;rotatable=0;points=[[0,0.5],[1,0.5]];portConstraint=eastwest;whiteSpace=wrap;html=1;" parent="siWyhBhnACyM7Weuultx-2" vertex="1">
          <mxGeometry y="26" width="390" height="26" as="geometry" />
        </mxCell>
        <mxCell id="siWyhBhnACyM7Weuultx-4" value="" style="line;strokeWidth=1;fillColor=none;align=left;verticalAlign=middle;spacingTop=-1;spacingLeft=3;spacingRight=3;rotatable=0;labelPosition=right;points=[];portConstraint=eastwest;strokeColor=inherit;" parent="siWyhBhnACyM7Weuultx-2" vertex="1">
          <mxGeometry y="52" width="390" height="8" as="geometry" />
        </mxCell>
        <mxCell id="siWyhBhnACyM7Weuultx-5" value="&lt;div&gt;- create_table(csv_path: string) -&amp;gt; string&lt;br&gt;&lt;/div&gt;- search(keyword: string)&amp;nbsp;-&amp;gt;&amp;nbsp;bool&lt;div&gt;- search_column(&lt;span style=&quot;&quot;&gt;keyword: string, column: ColumnEnum&lt;/span&gt;&lt;span style=&quot;&quot;&gt;)&lt;/span&gt;&lt;span style=&quot;&quot;&gt;&amp;nbsp;&lt;/span&gt;&lt;span style=&quot;&quot;&gt;-&amp;gt;&amp;nbsp;&lt;/span&gt;&lt;span style=&quot;&quot;&gt;bool&lt;/span&gt;&lt;/div&gt;&lt;div&gt;- show_guide&lt;span style=&quot;background-color: initial;&quot;&gt;_dialog&lt;/span&gt;&lt;span style=&quot;background-color: initial;&quot;&gt;()&amp;nbsp;-&amp;gt;&amp;nbsp;void&lt;/span&gt;&lt;/div&gt;&lt;div&gt;- show_import_dialog() -&amp;gt; void&lt;span style=&quot;background-color: initial;&quot;&gt;&lt;br&gt;&lt;/span&gt;&lt;/div&gt;&lt;div&gt;&lt;br&gt;&lt;/div&gt;" style="text;strokeColor=none;fillColor=none;align=left;verticalAlign=top;spacingLeft=4;spacingRight=4;overflow=hidden;rotatable=0;points=[[0,0.5],[1,0.5]];portConstraint=eastwest;whiteSpace=wrap;html=1;labelBackgroundColor=none;" parent="siWyhBhnACyM7Weuultx-2" vertex="1">
          <mxGeometry y="60" width="390" height="90" as="geometry" />
        </mxCell>
        <mxCell id="siWyhBhnACyM7Weuultx-11" value="CSV Searcher" style="rounded=0;whiteSpace=wrap;html=1;" parent="WIyWlLk6GJQsqaUBKTNV-1" vertex="1">
          <mxGeometry x="20" y="50" width="790" height="30" as="geometry" />
        </mxCell>
        <mxCell id="siWyhBhnACyM7Weuultx-12" value="&lt;span style=&quot;color: rgb(240, 240, 240); font-family: Helvetica; font-size: 12px; font-style: normal; font-variant-ligatures: normal; font-variant-caps: normal; font-weight: 700; letter-spacing: normal; orphans: 2; text-align: center; text-indent: 0px; text-transform: none; widows: 2; word-spacing: 0px; -webkit-text-stroke-width: 0px; white-space: normal; text-decoration-thickness: initial; text-decoration-style: initial; text-decoration-color: initial; float: none; display: inline !important;&quot;&gt;GuideDialog: QDialog&lt;/span&gt;" style="rounded=0;whiteSpace=wrap;html=1;labelBackgroundColor=none;" parent="WIyWlLk6GJQsqaUBKTNV-1" vertex="1">
          <mxGeometry x="60.5" y="350" width="160" height="30" as="geometry" />
        </mxCell>
        <mxCell id="siWyhBhnACyM7Weuultx-13" value="&lt;span style=&quot;color: rgb(240, 240, 240); font-family: Helvetica; font-size: 12px; font-style: normal; font-variant-ligatures: normal; font-variant-caps: normal; font-weight: 700; letter-spacing: normal; orphans: 2; text-align: center; text-indent: 0px; text-transform: none; widows: 2; word-spacing: 0px; -webkit-text-stroke-width: 0px; white-space: normal; text-decoration-thickness: initial; text-decoration-style: initial; text-decoration-color: initial; float: none; display: inline !important;&quot;&gt;ImportDialog: QFileDialog&lt;/span&gt;" style="rounded=0;whiteSpace=wrap;html=1;labelBackgroundColor=none;" parent="WIyWlLk6GJQsqaUBKTNV-1" vertex="1">
          <mxGeometry x="170.5" y="420" width="160" height="30" as="geometry" />
        </mxCell>
        <mxCell id="siWyhBhnACyM7Weuultx-14" value="SearchTable: QTableWidget" style="swimlane;fontStyle=1;align=center;verticalAlign=top;childLayout=stackLayout;horizontal=1;startSize=26;horizontalStack=0;resizeParent=1;resizeParentMax=0;resizeLast=0;collapsible=1;marginBottom=0;whiteSpace=wrap;html=1;" parent="WIyWlLk6GJQsqaUBKTNV-1" vertex="1">
          <mxGeometry x="540" y="109" width="270" height="120" as="geometry" />
        </mxCell>
        <mxCell id="siWyhBhnACyM7Weuultx-15" value="+ columns: [string]" style="text;strokeColor=none;fillColor=none;align=left;verticalAlign=top;spacingLeft=4;spacingRight=4;overflow=hidden;rotatable=0;points=[[0,0.5],[1,0.5]];portConstraint=eastwest;whiteSpace=wrap;html=1;" parent="siWyhBhnACyM7Weuultx-14" vertex="1">
          <mxGeometry y="26" width="270" height="26" as="geometry" />
        </mxCell>
        <mxCell id="siWyhBhnACyM7Weuultx-16" value="" style="line;strokeWidth=1;fillColor=none;align=left;verticalAlign=middle;spacingTop=-1;spacingLeft=3;spacingRight=3;rotatable=0;labelPosition=right;points=[];portConstraint=eastwest;strokeColor=inherit;" parent="siWyhBhnACyM7Weuultx-14" vertex="1">
          <mxGeometry y="52" width="270" height="8" as="geometry" />
        </mxCell>
        <mxCell id="siWyhBhnACyM7Weuultx-17" value="&lt;div&gt;+ hide_row(row_index)&lt;span style=&quot;&quot;&gt;&amp;nbsp;&lt;/span&gt;&lt;span style=&quot;&quot;&gt;-&amp;gt; void&lt;/span&gt;&lt;/div&gt;&lt;div&gt;+ unhide_all_rows() -&amp;gt; void&lt;br&gt;&lt;/div&gt;&lt;div&gt;+ highlight_cell(cell_x: int, cell_y: int) -&amp;gt; void&lt;/div&gt;" style="text;strokeColor=none;fillColor=none;align=left;verticalAlign=top;spacingLeft=4;spacingRight=4;overflow=hidden;rotatable=0;points=[[0,0.5],[1,0.5]];portConstraint=eastwest;whiteSpace=wrap;html=1;labelBackgroundColor=none;" parent="siWyhBhnACyM7Weuultx-14" vertex="1">
          <mxGeometry y="60" width="270" height="60" as="geometry" />
        </mxCell>
        <mxCell id="siWyhBhnACyM7Weuultx-21" value="" style="edgeStyle=none;orthogonalLoop=1;jettySize=auto;html=1;rounded=0;entryX=0.5;entryY=0;entryDx=0;entryDy=0;endArrow=open;endFill=0;" parent="WIyWlLk6GJQsqaUBKTNV-1" target="siWyhBhnACyM7Weuultx-12" edge="1">
          <mxGeometry width="100" relative="1" as="geometry">
            <mxPoint x="74" y="260" as="sourcePoint" />
            <mxPoint x="140" y="280" as="targetPoint" />
            <Array as="points" />
          </mxGeometry>
        </mxCell>
        <mxCell id="siWyhBhnACyM7Weuultx-22" value="" style="edgeStyle=none;orthogonalLoop=1;jettySize=auto;html=1;rounded=0;entryX=0.5;entryY=0;entryDx=0;entryDy=0;endArrow=open;endFill=0;" parent="WIyWlLk6GJQsqaUBKTNV-1" target="siWyhBhnACyM7Weuultx-13" edge="1">
          <mxGeometry width="100" relative="1" as="geometry">
            <mxPoint x="310" y="260" as="sourcePoint" />
            <mxPoint x="310" y="300" as="targetPoint" />
            <Array as="points" />
          </mxGeometry>
        </mxCell>
        <mxCell id="siWyhBhnACyM7Weuultx-23" value="1" style="text;html=1;align=center;verticalAlign=middle;resizable=0;points=[];autosize=1;strokeColor=none;fillColor=none;" parent="WIyWlLk6GJQsqaUBKTNV-1" vertex="1">
          <mxGeometry x="131" y="325" width="30" height="30" as="geometry" />
        </mxCell>
        <mxCell id="siWyhBhnACyM7Weuultx-24" value="1" style="text;html=1;align=center;verticalAlign=middle;resizable=0;points=[];autosize=1;strokeColor=none;fillColor=none;" parent="WIyWlLk6GJQsqaUBKTNV-1" vertex="1">
          <mxGeometry x="80" y="253" width="30" height="30" as="geometry" />
        </mxCell>
        <mxCell id="siWyhBhnACyM7Weuultx-25" value="1" style="text;html=1;align=center;verticalAlign=middle;resizable=0;points=[];autosize=1;strokeColor=none;fillColor=none;" parent="WIyWlLk6GJQsqaUBKTNV-1" vertex="1">
          <mxGeometry x="300.5" y="253" width="30" height="30" as="geometry" />
        </mxCell>
        <mxCell id="siWyhBhnACyM7Weuultx-26" value="1" style="text;html=1;align=center;verticalAlign=middle;resizable=0;points=[];autosize=1;strokeColor=none;fillColor=none;" parent="WIyWlLk6GJQsqaUBKTNV-1" vertex="1">
          <mxGeometry x="249" y="394" width="30" height="30" as="geometry" />
        </mxCell>
        <mxCell id="siWyhBhnACyM7Weuultx-27" value="" style="edgeStyle=none;orthogonalLoop=1;jettySize=auto;html=1;rounded=0;exitX=1;exitY=0.221;exitDx=0;exitDy=0;exitPerimeter=0;endArrow=diamondThin;endFill=0;endSize=9;" parent="WIyWlLk6GJQsqaUBKTNV-1" source="siWyhBhnACyM7Weuultx-5" edge="1">
          <mxGeometry width="100" relative="1" as="geometry">
            <mxPoint x="380" y="190" as="sourcePoint" />
            <mxPoint x="540" y="190" as="targetPoint" />
            <Array as="points" />
          </mxGeometry>
        </mxCell>
        <mxCell id="siWyhBhnACyM7Weuultx-29" value="1" style="text;html=1;align=center;verticalAlign=middle;resizable=0;points=[];autosize=1;strokeColor=none;fillColor=none;" parent="WIyWlLk6GJQsqaUBKTNV-1" vertex="1">
          <mxGeometry x="400" y="161" width="30" height="30" as="geometry" />
        </mxCell>
        <mxCell id="siWyhBhnACyM7Weuultx-30" value="1" style="text;html=1;align=center;verticalAlign=middle;resizable=0;points=[];autosize=1;strokeColor=none;fillColor=none;" parent="WIyWlLk6GJQsqaUBKTNV-1" vertex="1">
          <mxGeometry x="517" y="161" width="30" height="30" as="geometry" />
        </mxCell>
        <mxCell id="siWyhBhnACyM7Weuultx-32" style="edgeStyle=orthogonalEdgeStyle;rounded=0;orthogonalLoop=1;jettySize=auto;html=1;entryX=0.247;entryY=1.012;entryDx=0;entryDy=0;entryPerimeter=0;endArrow=diamondThin;endFill=1;strokeWidth=1;endSize=9;" parent="WIyWlLk6GJQsqaUBKTNV-1" source="siWyhBhnACyM7Weuultx-2" target="siWyhBhnACyM7Weuultx-11" edge="1">
          <mxGeometry relative="1" as="geometry" />
        </mxCell>
      </root>
    </mxGraphModel>
  </diagram>
</mxfile>
